<?xml version="1.0" standalone="no"?><!-- Generator: Gravit.io --><svg xmlns="http://www.w3.org/2000/svg" xmlns:xlink="http://www.w3.org/1999/xlink" style="isolation:isolate" viewBox="0 0 636 833.5" width="636" height="833.5"><defs><clipPath id="_clipPath_mD04lUHnG12P4Zu1RNnchG5A5FYv9uM8"><rect width="636" height="833.5"/></clipPath></defs><g clip-path="url(#_clipPath_mD04lUHnG12P4Zu1RNnchG5A5FYv9uM8)"><path d=" M 274.5 685.5 C 275.497 684.503 287.279 687 288 687 C 296.964 687 295.133 667.133 291 663 C 281.469 663 272.522 651.204 264 649.5 C 264 649.5 252 648 252 648 C 251.252 649.495 267.414 655.086 270 652.5 C 275.131 647.369 272.099 631.802 274.5 627 C 275.822 624.356 277.834 621.833 279 619.5 C 280.279 616.942 282.107 614.787 283.5 612 C 284.976 609.048 286.5 606.736 286.5 603 C 286.5 584.604 294.505 565.989 301.5 552 C 304.302 546.396 304.053 542.92 306 540 C 312.75 529.874 309.46 524.649 315 538.5 C 315.557 539.893 314.706 541.529 315 543 C 315.849 547.244 318.227 551.182 319.5 555 C 327.39 578.669 343.185 579 363 579 C 363.586 579 367.5 579.707 367.5 577.5 C 367.5 572.473 369.036 569.928 370.5 567 C 371.93 564.139 374.592 562.363 376.5 559.5 C 379.982 554.277 378.922 542.078 382.5 538.5 C 386.748 534.252 390.347 533.653 393 531 C 397.499 526.501 388.765 511.765 385.5 508.5 C 377.348 500.348 355.1 486.4 346.5 495 C 342.051 499.449 339.288 501.369 336 504 C 324.268 513.385 318 512.245 318 529.5 C 318 549.414 321.101 555.101 333 567 C 339.131 573.131 363.44 571.5 370.5 571.5 C 372.965 571.5 386.915 573.085 388.5 571.5 C 390 570 384 583.5 384 583.5 C 380.884 585.058 376.773 584.863 373.5 586.5 C 367.743 589.378 363.639 580.5 366 580.5 C 369.739 580.5 373.301 584.801 375 586.5 C 379.467 590.967 376.205 600.508 379.5 606 C 380.784 608.139 383.143 610.928 384 613.5 C 384.615 615.345 385.976 617.964 387 619.5 C 391.252 625.878 388.5 622.036 388.5 628.5 C 388.5 648.693 399.549 676.5 418.5 676.5 C 430.071 676.5 447 682.053 447 669 C 447 662.148 453.209 658.709 448.5 654 C 446.209 651.709 447.316 653.132 445.5 649.5 C 442.276 643.052 429.443 645.443 426 642 C 418.56 634.56 417 630.681 417 619.5 C 417 607.58 415.5 598.238 415.5 588 C 415.5 582.023 411 580.578 411 574.5 C 411 556.573 403.5 544.017 403.5 528 C 403.5 512.205 397.5 499.682 397.5 484.5 C 397.5 464.567 399.948 450.948 385.5 436.5 C 380.802 431.802 380.617 426.734 379.5 424.5 C 376.55 418.6 370.995 414.746 366 411 C 363.696 409.272 358.887 406.839 360 403.5 C 360.793 401.122 363 396.701 363 394.5 C 363 387.094 363.085 386.872 366 382.5 C 372.014 373.479 370.5 360.592 370.5 349.5 C 370.5 337.226 375.096 313.596 367.5 306 C 363.272 301.772 362.843 295.657 367.5 291 C 370.227 288.273 370.466 267.342 370.5 265.5 L 372 184.5" fill="none" vector-effect="non-scaling-stroke" stroke-width="1" stroke="rgb(0,0,0)" stroke-linejoin="miter" stroke-linecap="square" stroke-miterlimit="3"/><path d=" M 373.5 207 C 373.5 207 373.5 189 373.5 189 C 373.5 186.051 371.403 184.21 370.5 181.5 C 369.568 178.704 366 177.062 366 174 C 366 170.373 366.247 168.758 367.5 165 C 376.514 146.972 390.027 129.055 381 111 C 373.381 95.763 391.5 104.528 391.5 97.5 C 391.5 97.5 381 94.5 381 94.5 C 378.582 92.888 377.126 89.126 375 87 L 373.5 85.5" fill="none" vector-effect="non-scaling-stroke" stroke-width="1" stroke="rgb(0,0,0)" stroke-linejoin="miter" stroke-linecap="square" stroke-miterlimit="3"/><path d=" M 375 79.5 C 380.136 58.957 357 58.587 357 42 C 357 37.5 357 34.5 357 31.5 C 357 20.84 323.618 25.5 318 25.5 C 306.034 25.5 306.555 40.37 313.5 45 C 313.5 45 319.5 51 319.5 51 C 322.978 53.783 323.895 55.395 327 58.5 C 338.489 69.989 326.9 92.801 333 105 C 343.65 126.299 322.5 139.304 322.5 154.5 C 322.5 158.089 319.5 161.742 319.5 165 C 319.5 178.447 315 193.245 315 207 C 315 209.671 315.477 213.853 315 216 C 315 216 312 225 312 225 C 310.5 249.26 312.268 231.964 309 238.5 C 309 238.5 309 247.5 309 247.5 C 309.892 247.5 306.123 240.307 306 240 C 303.419 233.548 306.549 226.646 304.5 220.5 C 303.719 218.157 301.113 215.227 300 213 C 288.02 189.039 299.705 166.82 294 144 C 291.109 132.435 292.5 124.207 292.5 118.5 C 292.5 113.629 289.5 111.68 289.5 106.5 C 289.5 97.46 291 88.711 291 79.5 C 291 76.5 291 73.5 291 70.5 C 291 68.42 291.526 63.448 292.5 61.5 C 304.969 36.563 278.231 31.5 261 31.5 C 253.616 31.5 246.108 22.5 238.5 22.5 C 231.296 22.5 217.5 20.039 217.5 31.5 C 217.5 51.75 238.562 48.124 246 63 C 255.676 82.352 255 97.19 255 115.5 C 255 118.5 252 127.5 252 127.5 C 247.247 146.511 253.683 168.95 247.5 187.5 C 239.954 210.137 234 222.469 234 243 C 234 256.615 228.147 273.97 235.5 285 C 237.356 287.784 240.48 289.44 241.5 292.5 C 242.613 295.839 239.755 298.255 243 301.5 C 247.598 306.098 248.8 313.734 252 318 C 253.096 319.461 254.429 323.786 255 325.5 C 255.973 328.418 256.5 329.461 256.5 333 C 256.5 336 256.5 339 256.5 342 C 256.5 344.933 258.331 356.669 256.5 358.5 C 253.023 361.977 255 374.869 255 378 C 255 388.097 258.098 394.598 265.5 402 C 274.071 410.571 270 430.701 270 441 C 270 449.144 269.506 457.023 271.5 465 C 271.5 465 274.5 472.5 274.5 472.5 C 274.5 490.937 276 504.14 276 517.5 C 276 527.178 266.076 535.728 264 529.5 C 261.854 523.062 265.5 515.296 265.5 510 C 265.5 508.597 256.5 514.982 256.5 519 C 256.5 523.021 253.274 526.089 252 528 C 248.012 533.982 246.165 545.897 244.5 552 C 234.972 586.937 225 606.18 225 625.5 C 225 628.187 225.629 632.371 223.5 634.5 C 221.027 636.973 221.119 653.025 220.5 655.5 C 218.646 662.916 226.527 667.507 232.5 669 C 240.143 670.911 238.185 671.369 240 675 C 247.498 689.995 276.148 689.324 286.5 694.5 C 287.565 695.032 294.261 694.913 295.5 694.5 C 297.837 693.721 297 690.128 297 688.5 C 297 687 297.671 685.342 297 684 C 289.205 668.41 288.702 673.307 286.5 664.5 C 286.088 662.852 281.706 658.809 280.5 657 C 278.071 653.357 277.141 653.641 274.5 651 C 272.101 648.601 269.889 647.463 267 646.5" fill="none" vector-effect="non-scaling-stroke" stroke-width="1" stroke="rgb(0,0,0)" stroke-linejoin="miter" stroke-linecap="square" stroke-miterlimit="3"/><path d=" M 247.5 291 C 260.745 277.755 272.146 286.5 288 286.5 C 294.575 286.5 300 284.77 300 280.5 C 300 271.606 304.349 270.151 309 265.5 C 310.849 263.651 313.908 263.364 316.5 262.5 C 336.549 255.817 342.705 268.5 358.5 268.5 C 363.04 268.5 361.5 288.647 361.5 292.5 C 361.5 300 361.5 307.5 361.5 315 C 361.5 317.906 363 322.119 363 324 C 363 327.436 363.873 332.754 363 334.5 C 361.495 337.511 359.597 338.71 358.5 342 C 356.336 348.493 350.579 364.5 343.5 364.5 C 323 364.5 307 364.5 291 364.5 C 285 364.5 280.5 364.5 276 364.5 C 273 364.5 270 364.5 267 364.5 C 259.385 364.5 262.258 343.79 261 337.5 C 261 337.5 261 331.5 261 331.5 C 261 327.901 253.757 323.014 252 319.5 C 251.2 317.9 252 311.914 252 310.5 C 252 307.5 252 304.5 252 301.5 C 252 297.475 249.674 296.174 247.5 294 C 242.587 289.087 244.713 286.287 247.5 291 Z " fill="rgb(255,255,255)" vector-effect="non-scaling-stroke" stroke-width="1" stroke="rgb(0,0,0)" stroke-linejoin="miter" stroke-linecap="square" stroke-miterlimit="3"/><path d=" M 250.5 664.5 C 251.914 664.5 252.868 662.765 253.5 661.5 C 257.734 653.032 258 640.696 258 631.5 C 258 625.129 261.759 611.222 264 604.5 C 264 590.287 278.9 576.8 268.5 582" fill="none" vector-effect="non-scaling-stroke" stroke-width="1" stroke="rgb(0,0,0)" stroke-linejoin="miter" stroke-linecap="square" stroke-miterlimit="3"/><path d=" M 316.5 421.5 C 318.257 428.53 316.5 444.242 316.5 451.5 C 316.5 464.202 319.007 480.473 316.5 490.5 C 311.121 512.017 310.646 514.756 309 517.5 C 298.465 535.058 288.948 551.605 280.5 568.5 C 276.258 576.983 267 583.92 267 574.5" fill="none" vector-effect="non-scaling-stroke" stroke-width="1" stroke="rgb(0,0,0)" stroke-linejoin="miter" stroke-linecap="square" stroke-miterlimit="3"/><path d=" M 324 423 C 324 423 336 442.5 336 442.5 C 337.048 443.967 338.194 445.388 339 447 C 344.532 458.065 336.175 445.71 343.5 454.5 C 345.1 456.421 346.547 458.466 348 460.5 C 352.731 467.123 348.983 462.983 354 468 C 365.452 490.904 385.876 504.004 391.5 526.5 C 391.967 528.366 396 532.27 396 534 C 396 558.121 408 575 408 597 C 408 601.5 408 604.5 408 607.5 C 408 621.291 410.824 648.662 424.5 655.5 L 427.5 657 L 429 658.5" fill="none" vector-effect="non-scaling-stroke" stroke-width="1" stroke="rgb(0,0,0)" stroke-linejoin="miter" stroke-linecap="square" stroke-miterlimit="3"/><path d=" M 276 273 C 276 273.5 277.5 267.5 277.5 267 C 277.5 253.5 277.5 240 277.5 226.5 C 277.5 223.5 277.5 220.5 277.5 217.5 C 277.5 214.5 277.5 211.5 277.5 208.5 C 277.5 182.961 275.675 168.524 270 151.5 C 265.925 139.276 262.929 133.799 268.5 126 C 276.795 114.387 273 95.681 273 81 C 273 57.763 258.957 48.319 240 42" fill="none" vector-effect="non-scaling-stroke" stroke-width="1" stroke="rgb(0,0,0)" stroke-linejoin="miter" stroke-linecap="square" stroke-miterlimit="3"/><path d=" M 337.5 39 C 340.618 36.922 349.839 50.516 351 54 C 352.7 59.099 355.646 64.243 358.5 69 C 360.961 73.101 360.983 80.457 363 85.5 C 363 118.134 360.609 133.172 354 153 C 352.5 157.5 352.5 166.5 352.5 166.5 C 349.09 183.549 348 206.012 348 223.5 C 348 231 348 235.5 348 240" fill="none" vector-effect="non-scaling-stroke" stroke-width="1" stroke="rgb(0,0,0)" stroke-linejoin="miter" stroke-linecap="square" stroke-miterlimit="3"/></g></svg>